<svg xmlns="http://www.w3.org/2000/svg" xmlns:xlink="http://www.w3.org/1999/xlink" viewBox="0 0 840.66 93.36"><defs><style>.cls-1,.cls-8{fill:none;}.cls-2{clip-path:url(#clip-path);}.cls-3{font-size:48.02px;font-family:BerlinSansFB-Reg, Berlin Sans FB;}.cls-11,.cls-3{fill:#409eff;}.cls-4{letter-spacing:0em;}.cls-5{letter-spacing:0em;}.cls-6{letter-spacing:0em;}.cls-7{fill:#fff;}.cls-8{stroke:#409eff;stroke-miterlimit:10;stroke-width:6px;}.cls-9{clip-path:url(#clip-path-3);}.cls-10{clip-path:url(#clip-path-4);}</style><clipPath id="clip-path" transform="translate(-31.44 -223.32)"><rect class="cls-1" width="960" height="540"/></clipPath><clipPath id="clip-path-3" transform="translate(-31.44 -223.32)"><rect class="cls-1" x="46.68" y="237.24" width="65.52" height="65.52"/></clipPath><clipPath id="clip-path-4" transform="translate(-31.44 -223.32)"><rect class="cls-1" x="46.68" y="237.24" width="65.52" height="65.52"/></clipPath></defs><g id="图层_2" data-name="图层 2"><g id="图层_1-2" data-name="图层 1"><g class="cls-2"><text class="cls-3" transform="translate(121.54 64.54)">Computational Systems </text></g><g class="cls-2"><text class="cls-3" transform="translate(603.17 64.54)">Biol<tspan class="cls-4" x="75.04" y="0">o</tspan><tspan x="99.4" y="0">gy</tspan><tspan class="cls-5" x="147.23" y="0"> </tspan><tspan class="cls-6" x="159.43" y="0">Lab</tspan></text></g><ellipse class="cls-7" cx="46.62" cy="46.68" rx="43.62" ry="43.68"/><ellipse class="cls-8" cx="46.62" cy="46.68" rx="43.62" ry="43.68"/><g class="cls-9"><g class="cls-10"><path class="cls-11" d="M85.7,278.77a4.07,4.07,0,0,0-3.84,2.37H77.25a4.17,4.17,0,0,0-3.83-2.51h-.15l-1.67-2.94a4.16,4.16,0,0,0,.12-5.65l1.68-2.93h0a4.18,4.18,0,0,0,3.71-2.27H82a4.15,4.15,0,0,0,3.55,2.26l1.68,2.95a4.21,4.21,0,0,0-1,2.74,4.31,4.31,0,0,0,1.2,3l-1.7,3ZM111.94,263a4.17,4.17,0,1,0-7.22,2.83l-1.73,3a4.13,4.13,0,0,0-4.69,2.34H94.17a4.14,4.14,0,0,0-3.43-2.42l-1.8-3.08a4.16,4.16,0,0,0,.93-2.62,4.11,4.11,0,0,0-.86-2.53l1.84-3.13H91a4.18,4.18,0,1,0-3.4-1.76l-1.88,3.24h0a4.15,4.15,0,0,0-3.81,2.48l-4.65,0a4.15,4.15,0,0,0-3.81-2.5l-1.83-3.16a4.17,4.17,0,0,0,.29-5.45l1.73-3a4.18,4.18,0,1,0-3.36-1.45l-1.65,2.8h0a4.18,4.18,0,0,0-3.89,2.67h-4.8a4.17,4.17,0,1,0,0,3.85h5.25A4.16,4.16,0,0,0,68,256.85l2.1,3.56a4.14,4.14,0,0,0,.08,5.18l-1.8,3.05a4.16,4.16,0,0,0-3.6,2.44H60a4.17,4.17,0,1,0-7,4.38l-1.82,3.18a4.17,4.17,0,1,0,3.37,1.52L56.35,277a4.17,4.17,0,0,0,3.44-2H65a4.18,4.18,0,0,0,3.13,2l1.94,3.36a4.14,4.14,0,0,0,.19,5.22l-1.94,3.34a4.17,4.17,0,1,0,3.36,1.36l1-1.77h0l.87-1.5a4.15,4.15,0,0,0,3.55-2.26H82A4.15,4.15,0,0,0,85.56,287l1.82,3.16a4.16,4.16,0,1,0,3.42-1.25l-1.94-3.36a4.14,4.14,0,0,0,.17-5.21l2-3.38a4.18,4.18,0,0,0,3-2h4.55a4.17,4.17,0,0,0,7.38-3.84l2.29-4A4.18,4.18,0,0,0,111.94,263Z" transform="translate(-31.44 -223.32)"/></g></g></g></g></svg>