<svg xmlns="http://www.w3.org/2000/svg" xmlns:xlink="http://www.w3.org/1999/xlink" viewBox="0 0 882.67 115.33"><defs><style>.cls-1,.cls-5{fill:none;}.cls-2{clip-path:url(#clip-path);}.cls-3{font-size:66px;font-family:BerlinSansFB-Reg, Berlin Sans FB;}.cls-3,.cls-8{fill:#409eff;}.cls-4{fill:#fff;}.cls-5{stroke:#409eff;stroke-miterlimit:10;stroke-width:6px;}.cls-6{clip-path:url(#clip-path-2);}.cls-7{clip-path:url(#clip-path-3);}</style><clipPath id="clip-path" transform="translate(-10 -217)"><rect class="cls-1" width="960" height="540"/></clipPath><clipPath id="clip-path-2" transform="translate(-10 -217)"><rect class="cls-1" x="27.24" y="240.96" width="65.52" height="65.52"/></clipPath><clipPath id="clip-path-3" transform="translate(-10 -217)"><rect class="cls-1" x="27.24" y="240.96" width="65.52" height="65.52"/></clipPath></defs><g id="图层_2" data-name="图层 2"><g id="图层_1-2" data-name="图层 1"><g class="cls-2"><text class="cls-3" transform="translate(120.87 81.32)">Computational Biology Lab</text></g><circle class="cls-4" cx="48.62" cy="56.66" r="43.62"/><circle class="cls-5" cx="48.62" cy="56.66" r="43.62"/><g class="cls-6"><g class="cls-7"><path class="cls-8" d="M66.26,282.49a4.07,4.07,0,0,0-3.84,2.37H57.81A4.17,4.17,0,0,0,54,282.35h-.15l-1.67-2.94a4.16,4.16,0,0,0,.12-5.65L54,270.83h0a4.18,4.18,0,0,0,3.71-2.27h4.86a4.15,4.15,0,0,0,3.55,2.26l1.68,2.95a4.21,4.21,0,0,0-1,2.74,4.31,4.31,0,0,0,1.2,3l-1.7,3ZM92.5,266.67a4.17,4.17,0,1,0-7.22,2.83l-1.73,2.95a4.13,4.13,0,0,0-4.69,2.34H74.73a4.14,4.14,0,0,0-3.43-2.42l-1.8-3.08a4.16,4.16,0,0,0,.93-2.62,4.11,4.11,0,0,0-.86-2.53L71.41,261h.15a4.18,4.18,0,1,0-3.4-1.76l-1.88,3.24h0A4.15,4.15,0,0,0,62.45,265l-4.65,0A4.15,4.15,0,0,0,54,262.5l-1.83-3.16a4.17,4.17,0,0,0,.29-5.45l1.73-3a4.18,4.18,0,1,0-3.36-1.45l-1.65,2.8h0a4.18,4.18,0,0,0-3.89,2.67h-4.8a4.17,4.17,0,1,0,0,3.85h5.25a4.16,4.16,0,0,0,2.87,1.78l2.1,3.56a4.14,4.14,0,0,0,.08,5.18L49,272.36a4.16,4.16,0,0,0-3.6,2.44h-4.8a4.17,4.17,0,1,0-7,4.38l-1.82,3.18a4.17,4.17,0,1,0,3.37,1.52l1.81-3.19a4.17,4.17,0,0,0,3.44-2h5.22a4.18,4.18,0,0,0,3.13,2L50.64,284a4.14,4.14,0,0,0,.19,5.22l-1.94,3.34A4.17,4.17,0,1,0,52.25,294l1-1.77h0l.87-1.5a4.15,4.15,0,0,0,3.55-2.26h4.86a4.15,4.15,0,0,0,3.57,2.26l1.82,3.16a4.16,4.16,0,1,0,3.42-1.25l-1.94-3.36a4.14,4.14,0,0,0,.17-5.21l2-3.38a4.18,4.18,0,0,0,3-2h4.55a4.17,4.17,0,0,0,7.38-3.84l2.29-4A4.18,4.18,0,0,0,92.5,266.67Z" transform="translate(-10 -217)"/></g></g><rect class="cls-1" width="882.67" height="115.33"/></g></g></svg>